# xmcd
#
# Track frame offsets: 
#        150
#        19723
#        39942
#        58690
#        81155
#        102047
#        120320
#        139378
#        163060
#        181596
#        204604
#
# Disc length: 3013 seconds
#
# Revision: 0
# Processed by: cddbd v1.5.2PL0 Copyright (c) Steve Scherf et al.
# Submitted via: ExactAudioCopy v0.99pb5
#
DISCID=870bc30b
DTITLE=Various Artist - Christmas Chill Out Lounge
DYEAR=2009
DGENRE=Christmas
TTITLE0=Stephen Sandburne - Snow Falls
TTITLE1=Bruce Andrews - Christmas Tree
TTITLE2=Nora Simmons - Santa Clause
TTITLE3=Katie Epworth - Sleigh Reide
TTITLE4=Ruben Willmer Band - Silent Night
TTITLE5=Jay Greene - Winter Wonder
TTITLE6=Talon Bourne - Sweeter The Bells
TTITLE7=Al Browning - Have Yourself
TTITLE8=John Dowe - Let It Snow
TTITLE9=Curtis Gage - Ring Little Bell
TTITLE10=Ty Pursglove - What Child Is This
EXTD=
EXTT0=
EXTT1=
EXTT2=
EXTT3=
EXTT4=
EXTT5=
EXTT6=
EXTT7=
EXTT8=
EXTT9=
EXTT10=
PLAYORDER=
